#!OML:ASF F:\VICON\USERDATA\INSTALL\rory3\rory3.ASF
:FULLY-SPECIFIED
:DEGREES
747
root 0.636313 17.1379 6.17118 24.1544 33.6377 7.85526
lowerback 36.6609 1.68958 4.64279
upperback 10.2808 4.46422 3.29433
thorax -6.69922 2.23602 -0.598888
lowerneck -17.1829 -12.7877 -15.2768
upperneck 14.007 -16.3981 14.7196
head 9.80672 -7.19258 5.0432
rclavicle -7.63333e-014 -3.49861e-014
rhumerus 14.048 16.4276 -68.1546
rradius 29.3696
rwrist 9.80507
rhand -18.0997 7.81707
rfingers 7.12502
rthumb 8.17409 -22.0048
lclavicle -7.63333e-014 -3.49861e-014
lhumerus -21.5572 -40.4608 101.731
lradius 66.5955
lwrist -4.62304
lhand -38.1856 23.0805
lfingers 7.12502
lthumb -11.2183 52.7606
rfemur -56.7795 -19.7747 23.4315
rtibia 52.1358
rfoot -12.3822 -10.3552
rtoes 7.25523
lfemur -49.9955 -1.96406 -20.476
ltibia 32.5616
lfoot -0.122893 -11.5094
ltoes -7.04855
748
root 0.620945 17.1591 6.18712 23.1538 33.4543 7.62334
lowerback 36.4332 1.7491 4.34949
upperback 10.0926 4.41959 3.25408
thorax -6.8484 2.20594 -0.474953
lowerneck -16.9494 -12.7764 -15.3136
upperneck 13.8065 -16.4175 14.867
head 9.71779 -7.2061 5.10569
rclavicle -1.17681e-013 7.4743e-014
rhumerus 12.8093 16.6044 -69.1187
rradius 29.4861
rwrist 10.1141
rhand -18.0927 8.00244
rfingers 7.12502
rthumb 8.18091 -21.8192
lclavicle -1.17681e-013 7.4743e-014
lhumerus -21.6879 -40.2687 101.731
lradius 65.7458
lwrist -4.1874
lhand -37.7159 22.8102
lfingers 7.12502
lthumb -10.7652 52.5144
rfemur -55.5006 -19.4091 23.2023
rtibia 51.8619
rfoot -12.3915 -10.5342
rtoes 7.61208
lfemur -48.9538 -1.63536 -20.4062
ltibia 32.4486
lfoot -0.433204 -11.5968
ltoes -9.17925
749
root 0.613655 17.1829 6.20324 22.2174 33.5556 7.60157
lowerback 36.2221 1.62365 4.27345
upperback 9.91673 4.22631 3.17479
thorax -6.97192 2.11196 -0.44964
lowerneck -16.7582 -12.7452 -15.2045
upperneck 13.6403 -16.409 14.8549
head 9.61388 -7.21089 5.0943
rclavicle -3.18055e-015 -4.92986e-014
rhumerus 11.6008 16.8836 -69.8847
rradius 29.5933
rwrist 10.3991
rhand -18.2175 8.13107
rfingers 7.12502
rthumb 8.0604 -21.6952
lclavicle -3.18055e-015 -4.92986e-014
lhumerus -21.7897 -40.0787 101.745
lradius 64.9683
lwrist -3.87556
lhand -37.2626 21.9149
lfingers 7.12502
lthumb -10.328 51.6413
rfemur -54.1296 -19.4066 22.8782
rtibia 51.5811
rfoot -12.4463 -10.6865
rtoes 8.02309
lfemur -47.8281 -1.68492 -20.3605
ltibia 32.3305
lfoot -0.549063 -11.609
ltoes -9.8809
750
root 0.611362 17.2038 6.21911 21.0904 33.6552 7.37881
lowerback 36.0394 1.48464 4.37437
upperback 9.83236 4.07888 3.12026
thorax -6.99202 2.04415 -0.50364
lowerneck -16.7449 -12.7532 -15.1159
upperneck 13.5299 -16.4447 14.8976
head 9.57574 -7.2225 5.0889
rclavicle 9.54166e-015 -1.11319e-014
rhumerus 10.6482 17.1997 -70.3614
rradius 29.7297
rwrist 10.581
rhand -17.9726 8.25326
rfingers 7.12502
rthumb 8.2968 -21.5638
lclavicle 9.54166e-015 -1.11319e-014
lhumerus -21.7001 -40.0468 101.536
lradius 64.2364
lwrist -3.22242
lhand -36.9267 21.3266
lfingers 7.12502
lthumb -10.004 51.0689
rfemur -52.6795 -19.4686 22.7445
rtibia 51.2937
rfoot -12.5237 -10.6985
rtoes 8.69301
lfemur -46.5696 -1.87618 -19.9972
ltibia 32.2179
lfoot -0.481545 -11.3845
ltoes -9.04211
751
root 0.599023 17.2172 6.24055 20.1104 33.517 7.03968
lowerback 35.6805 1.56695 4.19569
upperback 9.67772 4.09749 3.12023
thorax -7.04751 2.04713 -0.413603
lowerneck -16.6822 -12.8378 -15.2564
upperneck 13.4599 -16.6035 15.2343
head 9.61533 -7.27718 5.19876
rclavicle 3.18055e-015 1.43125e-014
rhumerus 9.70911 17.9181 -70.5793
rradius 30.0254
rwrist 9.90729
rhand -17.9692 8.06503
rfingers 7.12502
rthumb 8.30003 -21.7519
lclavicle 3.18055e-015 1.43125e-014
lhumerus -21.7461 -40.002 101.413
lradius 63.4601
lwrist -2.54874
lhand -36.7548 21.2327
lfingers 7.12502
lthumb -9.83811 50.9829
rfemur -51.5038 -19.1636 22.7196
rtibia 51.0265
rfoot -12.5134 -10.8216
rtoes 9.21806
lfemur -45.5551 -1.82363 -19.5912
ltibia 32.103
lfoot -0.471505 -11.1528
ltoes -8.63037
752
root 0.590235 17.2292 6.2605 19.1858 33.394 6.85668
lowerback 35.4091 1.53251 3.9599
upperback 9.4693 3.94861 2.9956
thorax -7.18984 1.9712 -0.368556
lowerneck -16.6189 -12.8341 -15.22
upperneck 13.439 -16.6834 15.5433
head 9.64122 -7.28776 5.28873
rclavicle 1.03368e-013 -2.54444e-014
rhumerus 8.44037 18.2784 -71.6299
rradius 30.2595
rwrist 9.83741
rhand -18.3324 7.92873
rfingers 7.12502
rthumb 7.94957 -21.9018
lclavicle 1.03368e-013 -2.54444e-014
lhumerus -21.9916 -39.4558 101.496
lradius 62.5965
lwrist -2.10181
lhand -36.2559 21.6597
lfingers 7.12502
lthumb -9.3567 51.4321
rfemur -50.3205 -18.9616 22.5703
rtibia 50.774
rfoot -12.513 -10.9866
rtoes 9.29724
lfemur -44.5123 -1.79682 -19.3702
ltibia 31.9961
lfoot -0.535207 -10.9369
ltoes -8.91029
753
root 0.590546 17.2432 6.2778 18.249 33.4977 6.84328
lowerback 35.2292 1.27708 3.92833
upperback 9.27349 3.59432 2.76013
thorax -7.33268 1.80349 -0.473859
lowerneck -16.5525 -12.7553 -14.9971
upperneck 13.381 -16.6689 15.7072
head 9.60558 -7.25982 5.31841
rclavicle 1.59028e-014 2.70347e-014
rhumerus 7.37934 18.8156 -72.6459
rradius 30.2812
rwrist 9.77558
rhand -18.656 7.81217
rfingers 7.12502
rthumb 7.63718 -22.0299
lclavicle 1.59028e-014 2.70347e-014
lhumerus -22.308 -38.813 101.471
lradius 61.8337
lwrist -1.61678
lhand -35.5397 22.1374
lfingers 7.12502
lthumb -8.66566 51.9396
rfemur -49.0115 -19.0327 22.265
rtibia 50.5402
rfoot -12.6328 -11.1214
rtoes 9.65301
lfemur -43.2802 -2.0546 -19.2249
ltibia 31.8349
lfoot -0.593891 -10.7597
ltoes -9.01786
754
root 0.581758 17.2579 6.30147 17.3323 33.3287 6.74571
lowerback 34.8364 1.341 3.57668
upperback 9.30014 3.53382 2.80099
thorax -7.31231 1.77546 -0.245847
lowerneck -16.7006 -12.8484 -15.2577
upperneck 13.342 -16.7509 15.8673
head 9.6729 -7.29034 5.39072
rclavicle 6.52014e-014 -2.70347e-014
rhumerus 6.63126 19.467 -72.8919
rradius 30.3771
rwrist 9.46979
rhand -18.9629 8.007
rfingers 7.12502
rthumb 7.341 -21.8456
lclavicle 6.52014e-014 -2.70347e-014
lhumerus -22.3672 -38.4312 101.541
lradius 61.2047
lwrist -1.00106
lhand -34.8693 22.3905
lfingers 7.12502
lthumb -8.01863 52.2184
rfemur -47.7658 -18.7413 21.9883
rtibia 50.3045
rfoot -12.7002 -11.3021
rtoes 9.46921
lfemur -42.0177 -2.13405 -18.9917
ltibia 31.6119
lfoot -0.666289 -10.4835
ltoes -9.15459
755
root 0.571604 17.2744 6.32254 16.4046 33.2424 6.61547
lowerback 34.5348 1.33436 3.28138
upperback 9.28895 3.42026 2.88312
thorax -7.24084 1.72294 0.0423024
lowerneck -17.0379 -12.9608 -15.627
upperneck 13.402 -16.8226 16.0405
head 9.81816 -7.30792 5.47888
rclavicle -3.65764e-014 2.70347e-014
rhumerus 5.99624 20.111 -73.0108
rradius 30.6494
rwrist 9.19022
rhand -18.9378 8.34097
rfingers 7.12502
rthumb 7.36516 -21.5108
lclavicle -3.65764e-014 2.70347e-014
lhumerus -22.1961 -37.9298 101.57
lradius 60.519
lwrist -0.333443
lhand -34.1264 22.9562
lfingers 7.12502
lthumb -7.30155 52.8102
rfemur -46.5345 -18.5247 21.8037
rtibia 50.0643
rfoot -12.7335 -11.4991
rtoes 8.87258
lfemur -40.8048 -2.22213 -18.7579
ltibia 31.3574
lfoot -0.710125 -10.2497
ltoes -9.17219
756
root 0.562479 17.2906 6.34205 15.4625 33.2173 6.46044
lowerback 34.3701 1.23857 3.22137
upperback 9.11012 3.26575 2.78554
thorax -7.37501 1.6462 0.0258861
lowerneck -16.989 -12.9997 -15.743
upperneck 13.3435 -16.9073 16.2974
head 9.84358 -7.33349 5.5719
rclavicle 0 4.77083e-015
rhumerus 4.99916 20.4463 -73.6329
rradius 30.9256
rwrist 9.10831
rhand -18.877 8.37428
rfingers 7.12502
rthumb 7.42392 -21.4755
lclavicle 0 4.77083e-015
lhumerus -22.3198 -37.46 101.573
lradius 59.7454
lwrist 0.359171
lhand -33.5847 23.0056
lfingers 7.12502
lthumb -6.77867 52.8771
rfemur -45.2935 -18.345 21.6478
rtibia 49.7883
rfoot -12.788 -11.714
rtoes 9.11146
lfemur -39.6488 -2.33598 -18.5192
ltibia 31.1351
lfoot -0.733431 -10.0487
ltoes -9.22375
757
root 0.55412 17.2992 6.36192 14.6921 33.1862 6.40977
lowerback 34.0375 1.18191 3.09398
upperback 8.91052 3.12623 2.66891
thorax -7.47209 1.57703 0.0227794
lowerneck -16.7882 -13.0186 -15.8604
upperneck 13.2395 -16.988 16.6004
head 9.83148 -7.36232 5.68869
rclavicle 5.24792e-014 -4.29375e-014
rhumerus 3.97566 20.6788 -74.2241
rradius 31.1802
rwrist 9.17875
rhand -18.953 8.20346
rfingers 7.12502
rthumb 7.35052 -21.6489
lclavicle 5.24792e-014 -4.29375e-014
lhumerus -22.4886 -37.0644 101.628
lradius 58.9164
lwrist 1.19366
lhand -33.333 22.7992
lfingers 7.12502
lthumb -6.53569 52.6784
rfemur -44.2268 -18.1878 21.443
rtibia 49.4938
rfoot -12.7252 -11.9389
rtoes 9.26503
lfemur -38.6237 -2.43842 -18.3823
ltibia 30.901
lfoot -0.745193 -9.93779
ltoes -9.28851
758
root 0.544552 17.3084 6.38471 13.8709 33.135 6.25558
lowerback 33.6326 1.13599 2.92703
upperback 8.77869 2.98736 2.59493
thorax -7.47129 1.51069 0.0881167
lowerneck -16.7608 -13.0077 -15.8286
upperneck 13.2329 -17.0133 16.7184
head 9.83962 -7.36315 5.72201
rclavicle -2.38542e-014 -2.38542e-014
rhumerus 3.09649 20.9093 -74.7513
rradius 31.4036
rwrist 9.35936
rhand -19.0116 8.38731
rfingers 7.12502
rthumb 7.29394 -21.467
lclavicle -2.38542e-014 -2.38542e-014
lhumerus -22.5924 -36.6887 101.574
lradius 58.2996
lwrist 2.12652
lhand -32.5225 23.4265
lfingers 7.12502
lthumb -5.75317 53.3283
rfemur -43.1562 -17.9849 21.3504
rtibia 49.1801
rfoot -12.5994 -12.1745
rtoes 8.62151
lfemur -37.589 -2.44459 -18.1688
ltibia 30.638
lfoot -0.791782 -9.93317
ltoes -9.58806
759
root 0.536093 17.3282 6.40828 13.0837 33.0933 6.15542
lowerback 33.3129 1.07284 2.78556
upperback 8.56311 2.83648 2.47808
thorax -7.58832 1.43549 0.0955673
lowerneck -16.6697 -13.0062 -15.8126
upperneck 13.2872 -17.0619 16.8227
head 9.86154 -7.37816 5.75165
rclavicle 2.54444e-014 -8.74653e-014
rhumerus 2.05641 21.2323 -75.3511
rradius 31.678
rwrist 9.2653
rhand -19.001 8.6309
rfingers 7.12502
rthumb 7.3042 -21.223
lclavicle 2.54444e-014 -8.74653e-014
lhumerus -22.9397 -36.3359 101.571
lradius 57.7943
lwrist 2.91676
lhand -31.8128 24.1823
lfingers 7.12502
lthumb -5.068 54.1017
rfemur -42.0513 -17.8556 21.2206
rtibia 48.9129
rfoot -12.677 -12.3054
rtoes 8.86231
lfemur -36.5103 -2.52112 -18.0012
ltibia 30.3486
lfoot -0.865069 -9.86345
ltoes -10.1396
760
root 0.526271 17.3499 6.42951 12.4904 33.0029 6.11424
lowerback 32.5473 1.03925 2.6137
upperback 8.71842 2.68516 2.32405
thorax -7.83173 1.36875 0.0836047
lowerneck -16.2194 -13.0494 -16.1368
upperneck 13.0556 -17.2049 17.4118
head 9.82562 -7.43912 5.99896
rclavicle -9.85972e-014 -4.45278e-014
rhumerus 0.952315 21.732 -75.9376
rradius 32.0526
rwrist 8.74354
rhand -18.9534 8.74897
rfingers 7.12502
rthumb 7.35011 -21.1034
lclavicle -9.85972e-014 -4.45278e-014
lhumerus -23.3648 -35.8748 101.597
lradius 57.1809
lwrist 3.56472
lhand -31.2709 24.5039
lfingers 7.12502
lthumb -4.54472 54.4352
rfemur -41.1661 -17.7508 21.1193
rtibia 48.6755
rfoot -12.7503 -12.3834
rtoes 8.89443
lfemur -35.6119 -2.58425 -17.888
ltibia 30.0289
lfoot -0.867003 -9.77733
ltoes -10.8521
761
root 0.518628 17.3597 6.44192 12.355 32.9837 6.22835
lowerback 31.6536 0.968751 2.41177
upperback 8.42321 2.48144 2.1904
thorax -7.76164 1.26965 0.140192
lowerneck -15.6597 -13.0689 -16.3283
upperneck 12.5755 -17.2714 17.7434
head 9.62876 -7.49555 6.15099
rclavicle -3.81667e-014 -1.11319e-014
rhumerus -0.00934486 22.1089 -76.4123
rradius 32.4436
rwrist 8.33384
rhand -19.1504 8.78504
rfingers 7.12502
rthumb 7.15993 -21.0738
lclavicle -3.81667e-014 -1.11319e-014
lhumerus -23.5883 -35.2376 101.666
lradius 56.5598
lwrist 4.24829
lhand -30.2198 25.2443
lfingers 7.12502
lthumb -3.52974 55.1949
rfemur -40.8226 -17.7304 21.0026
rtibia 48.4752
rfoot -12.6989 -12.4539
rtoes 8.75769
lfemur -35.1812 -2.66356 -17.9187
ltibia 29.6593
lfoot -0.680673 -9.73269
ltoes -10.4397
